<?xml version="1.0" encoding="UTF-8"?>
<svg version="1.1" xmlns="http://www.w3.org/2000/svg" width="1200" height="1200">
<path d="M0 0 C0.66 0 1.32 0 2 0 C2.47308594 0.83660156 2.94617188 1.67320312 3.43359375 2.53515625 C6.97235006 8.7724411 10.55532497 14.97864776 14.25 21.125 C14.79889893 22.04430298 14.79889893 22.04430298 15.35888672 22.98217773 C17.51007609 26.5725046 19.70913154 30.12559323 21.95703125 33.65625 C32.55421704 50.49189914 39.54901309 68.70399863 44.50488281 87.96191406 C44.94857102 89.65654455 45.46869 91.33076623 46 93 C46.66 93.33 47.32 93.66 48 94 C48.103125 94.78375 48.20625 95.5675 48.3125 96.375 C49.12906419 100.68052028 50.80479199 104.11518567 52.671875 108.05859375 C53.96384962 110.91993754 55.03469756 113.78487153 56.0625 116.75 C57.62245224 121.18790496 59.51726348 125.00988774 62 129 C66.12920623 128.56534671 69.76205308 128.07138408 73.75 126.875 C76.979584 126.00549661 77.95927503 126.06134142 81 127 C79.44148245 127.82011312 77.87798284 128.63076213 76.3125 129.4375 C75.44238281 129.88996094 74.57226562 130.34242188 73.67578125 130.80859375 C71.09001736 131.95991928 68.78643472 132.56320753 66 133 C66.680625 133.70125 67.36125 134.4025 68.0625 135.125 C68.5152832 135.60066406 68.96806641 136.07632813 69.43457031 136.56640625 C70.93758555 138.05868487 70.93758555 138.05868487 72.77636719 138.96484375 C75.20444554 140.41884485 76.44209736 141.607622 78 144 C79.0964226 149.93380957 79.12765491 155.85375447 79.1875 161.875 C79.22787117 164.32096109 79.27848313 166.76549439 79.35090637 169.21072388 C79.39426795 170.72629752 79.41904977 172.2425666 79.4214325 173.75875854 C79.54130259 178.65811863 80.68601294 182.01042694 83.14546204 186.25393677 C84 188 84 188 84 191 C83.01 190.67 82.02 190.34 81 190 C81.2825281 197.55762675 82.58993853 203.27422659 86 210 C86.67834587 211.66194738 87.35199575 213.32598903 88 215 C93.75762166 213.91103333 99.39247819 212.70663707 105 211 C103.47547071 215.2841203 100.61196542 216.86470292 96.875 219.25 C95.77929688 219.95640625 94.68359375 220.6628125 93.5546875 221.390625 C92.29011719 222.18726563 92.29011719 222.18726563 91 223 C91.27714844 223.7734375 91.55429687 224.546875 91.83984375 225.34375 C95.14835483 234.8571911 95.14835483 234.8571911 94.9375 239.25 C96.38214941 244.34876263 99.50306866 245.78875699 103.86279297 248.27783203 C105.56342624 249.20709176 107.2813358 250.10452776 109 251 C109.7321875 251.38929688 110.464375 251.77859375 111.21875 252.1796875 C112.44580251 252.80881188 113.68306935 253.41840726 114.9296875 254.0078125 C116.53658851 254.77791223 118.12115305 255.59469858 119.6953125 256.4296875 C138.29849653 266.19271619 158.30452241 268.28295239 179 269 C178.8125 270.8125 178.8125 270.8125 178 273 C176.35 273.99 174.7 274.98 173 276 C177.62 276 182.24 276 187 276 C185.16505198 279.66989604 184.74376182 280.49643694 181.65625 282.62890625 C180.99157715 283.10126709 180.3269043 283.57362793 179.64208984 284.06030273 C178.9352002 284.55602783 178.22831055 285.05175293 177.5 285.5625 C171.20703383 290.10820126 166.09458745 294.73636671 161.05859375 300.6640625 C159.27802129 302.68452233 157.59054085 304.22178276 155.4375 305.8125 C152.71443016 307.85363417 152.71443016 307.85363417 152.125 311.3125 C152.08375 312.199375 152.0425 313.08625 152 314 C151.34773437 314.17015625 150.69546875 314.3403125 150.0234375 314.515625 C144.63277496 316.01038098 140.45246128 317.60206902 136 321 C136.41681873 325.8628852 138.36984145 327.86486307 142 331 C146.24237127 334.17242578 149.08434403 334.28484539 154.3125 333.875 C155.00021484 333.822229 155.68792969 333.76945801 156.39648438 333.71508789 C164.02903109 333.04992148 171.51258857 331.5831096 179 330 C178.67 330.99 178.34 331.98 178 333 C175.015625 334.09765625 175.015625 334.09765625 171.25 335.0625 C167.02749 336.16229601 163.03195841 337.33843598 159 339 C160.47593628 339.47626831 160.47593628 339.47626831 161.98168945 339.9621582 C165.63559545 341.14389445 169.28550131 342.33758815 172.93432617 343.53491211 C174.51333987 344.05119982 176.09341613 344.5642496 177.67456055 345.07397461 C179.94868278 345.80772376 182.21871434 346.55307853 184.48828125 347.30078125 C185.19463211 347.52590897 185.90098297 347.75103668 186.6287384 347.98298645 C192.999704 350.10518446 192.999704 350.10518446 195 353 C195.5625 356.375 195.5625 356.375 195 360 C191.40038924 363.7795913 187.12680576 366.26108692 182.63671875 368.88671875 C180.83938994 369.91452102 180.83938994 369.91452102 180 372 C179.4769472 375.8357205 179.78357403 377.62898405 181.75 381 C189.96462151 389.84116044 203.77021232 392.97127865 215.33654785 393.43495178 C219.95320124 393.56590203 224.56941433 393.63232906 229.1875 393.6875 C231.11265267 393.72072862 233.03778392 393.75522325 234.96289062 393.79101562 C239.6418078 393.87528175 244.32068184 393.94238782 249 394 C248.36609994 399.3286614 247.84507667 402.13572994 244 406 C241.83511076 407.70038114 239.72809645 409.24397912 237.4375 410.75 C236.79272705 411.17684082 236.1479541 411.60368164 235.48364258 412.04345703 C224.50055193 419.0950044 212.23320948 424.50295898 200 429 C206.43681228 428.48914188 211.95942424 427.27057103 218 425 C217.67 425.99 217.34 426.98 217 428 C203.73557129 434.27797145 188.89039254 437.20177711 174.38671875 438.60546875 C171.13810168 438.78898482 171.13810168 438.78898482 169 440 C168.57877655 442.87836025 168.51721729 445.09632979 169.9140625 447.7109375 C177.57573509 457.61286524 190.69286155 461.73838306 202 466 C202.79921875 466.38285156 203.5984375 466.76570313 204.421875 467.16015625 C208.04129072 468.33920834 211.55271463 468.21235873 215.3125 468.125 C216.42334961 468.11146484 216.42334961 468.11146484 217.55664062 468.09765625 C219.37123467 468.07424213 221.18566071 468.03837615 223 468 C222 470 222 470 219.8046875 470.81640625 C212.54191262 472.66599292 205.70513505 473.43513598 198.25 473.69140625 C195.24499399 473.97673735 193.52816539 474.42621705 191 476 C191 478.64 191 481.28 191 484 C197.06316606 486.02670865 202.95711135 486.58261182 209.3125 487.0625 C211.28804659 487.21642217 213.26332799 487.3737995 215.23828125 487.53515625 C216.10493408 487.600979 216.97158691 487.66680176 217.86450195 487.73461914 C220 488 220 488 222 489 C222 489.66 222 490.32 222 491 C218.04 491.99 214.08 492.98 210 494 C210.33 495.32 210.66 496.64 211 498 C213.4766611 499.02770979 215.74395542 499.80320119 218.3125 500.5 C226.96535788 502.88756307 226.96535788 502.88756307 230 507 C231.9753053 514.46549209 228.2535102 522.06114506 224.62109375 528.41015625 C223.45254603 530.29781026 222.23147709 532.15278436 221 534 C224.63 533.01 228.26 532.02 232 531 C232 534 232 534 230.74780273 535.43408203 C226.40101383 539.02904306 221.91935953 542.0187082 217.0625 544.875 C210.97721384 548.57848074 205.39627531 552.28176778 201 558 C200.57549561 558.51079102 200.15099121 559.02158203 199.71362305 559.54785156 C195.09940882 565.78127588 195.22478475 571.96019509 195.1875 579.5 C195.16236328 580.70398438 195.13722656 581.90796875 195.11132812 583.1484375 C195.05277951 586.09928749 195.01626168 589.04866484 195 592 C195.5347998 591.78794922 196.06959961 591.57589844 196.62060547 591.35742188 C199.03736417 590.40143386 201.45614058 589.45065947 203.875 588.5 C204.71675781 588.16613281 205.55851562 587.83226562 206.42578125 587.48828125 C207.23144531 587.17246094 208.03710938 586.85664062 208.8671875 586.53125 C209.61081543 586.23798828 210.35444336 585.94472656 211.12060547 585.64257812 C213 585 213 585 215 585 C213.46333594 589.32877262 210.13249242 591.46011208 206.5625 594.0625 C204.36139388 595.69214182 202.17752499 597.3384236 200 599 C199.42596436 599.3909082 198.85192871 599.78181641 198.26049805 600.18457031 C196.2233031 603.11863609 197.18672867 606.05787324 197.765625 609.38671875 C197.87847839 610.1213887 197.99133179 610.85605865 198.10760498 611.61299133 C198.47259511 613.97396859 198.85986881 616.33055783 199.25 618.6875 C201.92527043 635.27942229 203.04030864 651.59343121 203.38677979 668.3868103 C203.88608054 691.03529691 206.35631351 712.60986833 210.26025391 734.91577148 C212.22247483 746.16944429 214.00523146 757.42467916 215.5 768.75 C215.59575317 769.47448334 215.69150635 770.19896667 215.79016113 770.94540405 C216.41602419 775.7011415 217.02960935 780.45842512 217.64129639 785.21600342 C218.78456762 794.08924329 219.94512221 802.96023287 221.10791016 811.83093262 C221.54725053 815.19570892 221.98097644 818.56117168 222.4140625 821.92675781 C223.92798293 833.57551919 225.58708809 845.16709136 227.73060608 856.71931458 C229.46394874 866.47279551 229.37012322 876.13004757 229 886 C219.31665199 876.92014676 217.88283412 860.77523882 215.5625 848.375 C210.01863742 818.81615182 200.74513827 790.70159076 188.9609375 763.06298828 C186.85498178 758.1025382 184.86413985 753.11856381 183 748.0625 C173.74786506 723.06478805 163.96544277 696.93796305 147.29296875 675.83984375 C146 674 146 674 146 672 C143.62483024 672.31124998 141.24986818 672.62396403 138.875 672.9375 C137.87726563 673.06801758 137.87726563 673.06801758 136.859375 673.20117188 C132.89169812 673.72630558 128.94373002 674.31814014 125 675 C125.33 674.01 125.66 673.02 126 672 C128.0390625 671.15625 128.0390625 671.15625 130.625 670.5 C131.52605469 670.24347656 132.42710937 669.98695313 133.35546875 669.72265625 C134.93533468 669.29093513 136.52015442 668.87597057 138.11328125 668.49609375 C140.92610778 667.63477856 142.66993108 666.60119696 144.09375 664.0078125 C146.51339826 656.99531338 147.67314452 648.65505988 145.12109375 641.5546875 C143.89277948 639.22778192 142.53163615 637.13887573 141 635 C140.20335937 633.82244141 140.20335937 633.82244141 139.390625 632.62109375 C136.00040667 627.90122556 132.72820216 624.73391584 127.6015625 621.97265625 C126 621 126 621 125 619 C124.39695026 613.70995609 126.05225437 610.56885381 128.9375 606.3125 C132.99379978 600.16320699 132.99379978 600.16320699 134.125 593 C134.12757813 592.319375 134.13015625 591.63875 134.1328125 590.9375 C134.06631126 588.78125219 134.06631126 588.78125219 133 586 C125.74 586.33 118.48 586.66 111 587 C111 586.34 111 585.68 111 585 C119.415 582.03 119.415 582.03 128 579 C118.45564628 567.44231264 118.45564628 567.44231264 105.79296875 559.95703125 C104 559 104 559 103.23828125 556.88671875 C103.15964844 556.26410156 103.08101562 555.64148438 103 555 C104.72526042 554.38151042 106.45052083 553.76302083 108.17578125 553.14453125 C111.75907956 550.89633766 112.82124693 547.72721981 113.80078125 543.7421875 C116.23410175 525.35297152 116.52088302 500.04176605 108 483 C106.19402344 483.433125 106.19402344 483.433125 104.3515625 483.875 C102.7760696 484.25011736 101.20054724 484.62511095 99.625 485 C98.43390625 485.28617188 98.43390625 485.28617188 97.21875 485.578125 C96.07792969 485.84882812 96.07792969 485.84882812 94.9140625 486.125 C94.2123291 486.29257812 93.5105957 486.46015625 92.78759766 486.6328125 C91 487 91 487 89 487 C89 486.01 89 485.02 89 484 C89.89203125 483.66226562 90.7840625 483.32453125 91.703125 482.9765625 C92.87359375 482.53054688 94.0440625 482.08453125 95.25 481.625 C96.41015625 481.18414063 97.5703125 480.74328125 98.765625 480.2890625 C101.26209781 479.29409145 103.62904947 478.25589954 106 477 C105.71459486 475.43634416 105.42136502 473.87411566 105.125 472.3125 C104.96257812 471.44238281 104.80015625 470.57226562 104.6328125 469.67578125 C103.99232114 466.96753073 103.03492113 464.57940265 102 462 C101.20146271 458.92563143 100.49151254 455.83800573 99.78125 452.7421875 C99.09895142 449.81747686 99.09895142 449.81747686 97 447 C96.77294922 444.82348633 96.77294922 444.82348633 96.8046875 442.33203125 C96.81113281 441.43935547 96.81757812 440.54667969 96.82421875 439.62695312 C96.84935547 438.23379883 96.84935547 438.23379883 96.875 436.8125 C96.88402344 435.87212891 96.89304687 434.93175781 96.90234375 433.96289062 C96.92590944 431.64167032 96.95880884 429.32096356 97 427 C95.94941406 427.144375 94.89882813 427.28875 93.81640625 427.4375 C86.49781309 428.41505494 79.40116009 429.26432715 72 429 C72 428.34 72 427.68 72 427 C72.59538574 426.823479 73.19077148 426.64695801 73.80419922 426.46508789 C76.49503847 425.66613825 79.18502509 424.86435473 81.875 424.0625 C82.81214844 423.78470703 83.74929688 423.50691406 84.71484375 423.22070312 C85.61074219 422.95322266 86.50664063 422.68574219 87.4296875 422.41015625 C88.25710449 422.16402588 89.08452148 421.91789551 89.93701172 421.66430664 C92.03165657 421.0473112 92.03165657 421.0473112 94 420 C89.75603837 412.7311378 89.75603837 412.7311378 83 408 C83.268125 406.948125 83.53625 405.89625 83.8125 404.8125 C84.52851393 399.38434031 82.40591915 395.07532728 80.32421875 390.1484375 C76.02468459 379.92594624 76.02468459 379.92594624 78 374 C80.50170937 372.20403601 83.11704689 371.05730171 86 370 C86.46397935 366.10257342 86.25225057 364.38244441 84.0625 361.0625 C78.91684008 355.50752623 71.46060033 348.59501714 63.69897461 347.74926758 C61.0219763 347.66840922 58.36495131 347.68936416 55.6875 347.75 C54.78837891 347.75515625 53.88925781 347.7603125 52.96289062 347.765625 C47.24599123 347.83176411 41.6711936 348.28315188 36 349 C35.67 348.34 35.34 347.68 35 347 C44.92029076 343.59403351 54.7525978 340.29059579 65 338 C65.33 336.68 65.66 335.36 66 334 C64.67083439 333.36618492 63.33635391 332.74351516 62 332.125 C61.2575 331.77695312 60.515 331.42890625 59.75 331.0703125 C51.1180688 327.71072564 44.09975645 328.01515929 34.9375 328.8125 C33.69677734 328.90853516 32.45605469 329.00457031 31.17773438 329.10351562 C26.46855571 329.47893971 21.79963664 329.88231154 17.125 330.5703125 C13.40790667 331.08141283 9.81273619 331.09568793 6.0625 331.0625 C5.37865234 331.05798828 4.69480469 331.05347656 3.99023438 331.04882812 C2.32678396 331.0371956 0.6633795 331.01926694 -1 331 C-1 330.34 -1 329.68 -1 329 C8.9 327.35 18.8 325.7 29 324 C22.7795774 323.37795774 16.82147657 322.84552592 10.61279297 322.79467773 C9.84080063 322.78477814 9.06880829 322.77487854 8.27342224 322.76467896 C5.7630401 322.73350253 3.25263914 322.7084833 0.7421875 322.68359375 C-1.01472418 322.66298616 -2.77163134 322.64198879 -4.52853394 322.62062073 C-9.12166643 322.56579254 -13.71484071 322.5162125 -18.30804443 322.46777344 C-23.00748349 322.41726921 -27.70686291 322.36173511 -32.40625 322.30664062 C-41.60411556 322.19954023 -50.8020332 322.09799127 -60 322 C-58.46053792 318.67057843 -57.57478727 317.42444385 -54.16796875 315.95703125 C-53.37946533 315.60995117 -52.59096191 315.26287109 -51.77856445 314.90527344 C-50.92351318 314.5446582 -50.06846191 314.18404297 -49.1875 313.8125 C-48.30473389 313.42739258 -47.42196777 313.04228516 -46.51245117 312.64550781 C-43.68130693 311.41494437 -40.84223683 310.20470444 -38 309 C-36.58702637 308.40034424 -36.58702637 308.40034424 -35.14550781 307.78857422 C-34.21319336 307.39299316 -33.28087891 306.99741211 -32.3203125 306.58984375 C-31.39839111 306.19756592 -30.47646973 305.80528809 -29.52661133 305.40112305 C-27.76863995 304.65552306 -26.00819398 303.91572011 -24.24487305 303.18286133 C-9.89198582 297.1396149 3.13554564 289.05290904 12 276 C12.37793701 275.50089111 12.75587402 275.00178223 13.14526367 274.48754883 C16.54935284 269.94462761 18.98071114 265.2260628 21.3125 260.0625 C21.67150391 259.28326172 22.03050781 258.50402344 22.40039062 257.70117188 C23.27343243 255.80376102 24.13765436 253.90229597 25 252 C22.70777011 252.60209238 20.41613511 253.20626401 18.125 253.8125 C17.44260254 253.99264648 16.76020508 254.17279297 16.05712891 254.35839844 C11.37616203 255.60445087 6.74970636 256.96676352 2.1484375 258.484375 C-0.29326565 259.07038376 -2.49793158 259.08779187 -5 259 C-3.66390265 256.32780529 -2.50499645 256.24847704 0.26953125 255.23046875 C1.59464722 254.73836914 1.59464722 254.73836914 2.9465332 254.23632812 C3.89230225 253.89021484 4.83807129 253.54410156 5.8125 253.1875 C6.76922607 252.82205078 7.72595215 252.45660156 8.71166992 252.08007812 C12.71405328 250.5530358 16.65811765 249.09712567 20.78125 247.92578125 C26.84547885 246.07369074 29.55710204 243.82405188 32.51245117 238.33398438 C34.16989622 234.94587535 35.62649448 231.51159995 37 228 C37.28770264 227.31824707 37.57540527 226.63649414 37.87182617 225.93408203 C39.61881522 221.64793034 40.34763858 218.19739826 40.1875 213.5 C40.16042969 212.4584375 40.13335938 211.416875 40.10546875 210.34375 C40.05326172 209.18359375 40.05326172 209.18359375 40 208 C37.33316351 208.62428218 34.66652933 209.24940826 32 209.875 C31.25621094 210.04902344 30.51242187 210.22304688 29.74609375 210.40234375 C24.81947641 211.55902782 19.90686184 212.76213258 15 214 C15.27246094 212.12939453 15.27246094 212.12939453 16 210 C17.59472656 208.84326172 17.59472656 208.84326172 19.640625 207.9296875 C20.38183594 207.59066406 21.12304688 207.25164062 21.88671875 206.90234375 C23.05654297 206.39380859 23.05654297 206.39380859 24.25 205.875 C25.01441406 205.52824219 25.77882813 205.18148437 26.56640625 204.82421875 C30.34143872 203.12252017 34.1389055 201.49810466 38 200 C38.33 197.69 38.66 195.38 39 193 C25.72865995 188.80391454 12.84843943 188.20120478 -1 188 C-0.43136787 185.10023855 -0.24899379 184.21382517 2.07421875 182.21875 C2.93660156 181.6515625 3.79898438 181.084375 4.6875 180.5 C5.58597656 179.89671875 6.48445313 179.2934375 7.41015625 178.671875 C8.93062264 177.69033712 10.45686791 176.71747503 11.99609375 175.765625 C13.37253122 174.90741459 14.69414454 173.96220929 16 173 C16 172.01 16 171.02 16 170 C8.08 170 0.16 170 -8 170 C-8 169.34 -8 168.68 -8 168 C2.44576364 162.30366755 12.71021151 156.85109482 24 153 C24.65372304 137.51983837 23.6792316 122.87563148 21.06201172 107.60913086 C19.30019651 97.28850619 18.0229152 86.97492927 16.9375 76.5625 C14.49400629 53.47209683 11.9125932 30.58944241 3.1484375 8.90234375 C1.98632391 5.96543765 0.97313162 3.00420908 0 0 Z " fill="#5F0000" transform="translate(474,144)"/>
<path d="M0 0 C0.66 0 1.32 0 2 0 C2.15855469 1.12535156 2.31710938 2.25070312 2.48046875 3.41015625 C4.66244598 18.09827436 7.61502988 31.09427344 17 43 C18.359741 44.87096146 19.71378961 46.74607141 21.0625 48.625 C23.38764109 51.81478894 25.7367716 54.98226602 28.125 58.125 C30.07902265 60.71473135 31.91263242 63.3471043 33.6875 66.0625 C37.35622476 71.64323211 41.34810244 76.98251357 45.31640625 82.3515625 C45.75936035 82.95484375 46.20231445 83.558125 46.65869141 84.1796875 C47.56476235 85.40933164 48.47873209 86.63318873 49.39990234 87.8515625 C52.34949752 91.82287092 53.8832065 95.15583909 55.03125 99.984375 C56.42588883 102.88612354 58.13989296 103.56811449 61 105 C64.20867855 105.66361088 64.20867855 105.66361088 67.70703125 105.9140625 C69.00954834 106.03483154 70.31206543 106.15560059 71.65405273 106.2800293 C73.04016592 106.39545155 74.42631572 106.51043481 75.8125 106.625 C77.21890922 106.75018652 78.62524103 106.8762457 80.03149414 107.00317383 C89.34285829 107.8310537 98.66146556 108.56107375 108 109 C108 109.66 108 110.32 108 111 C106.66195312 111.45439453 106.66195312 111.45439453 105.296875 111.91796875 C104.12640625 112.33691406 102.9559375 112.75585938 101.75 113.1875 C100.58984375 113.59355469 99.4296875 113.99960937 98.234375 114.41796875 C94.68979374 116.15173132 93.08965991 117.68266489 91 121 C91.0825 121.825 91.165 122.65 91.25 123.5 C91.1675 124.325 91.085 125.15 91 126 C89.0447729 127.531521 87.03051716 128.70481699 84.84765625 129.88671875 C82.84157239 130.87076977 82.84157239 130.87076977 82 133 C82.60328125 133.19335938 83.2065625 133.38671875 83.828125 133.5859375 C84.62734375 133.84632813 85.4265625 134.10671875 86.25 134.375 C87.03890625 134.63023437 87.8278125 134.88546875 88.640625 135.1484375 C90.89662713 135.96268992 92.94331186 136.764183 95 138 C96.87412286 142.12307029 97.07493967 145.52859947 97 150 C98.04800781 149.566875 99.09601563 149.13375 100.17578125 148.6875 C101.55457596 148.12472665 102.93348839 147.56224165 104.3125 147 C105.00279297 146.71382812 105.69308594 146.42765625 106.40429688 146.1328125 C109.41545674 144.91089256 111.71886984 144 115 144 C114 147 114 147 111.453125 148.46484375 C110.39609375 148.95082031 109.3390625 149.43679688 108.25 149.9375 C104.04356145 151.88012864 100.26623683 153.66197775 97 157 C96.3598358 159.86742136 96.3598358 159.86742136 96.625 162.9375 C96.65851563 163.95714844 96.69203125 164.97679687 96.7265625 166.02734375 C96.97704954 168.75049574 97.40104127 171.33414271 98 174 C98.7425 173.54625 99.485 173.0925 100.25 172.625 C102.46930578 171.31359204 104.67967822 170.11719197 107 169 C105.71480435 171.86697492 104.42870746 173.97607712 102 176 C101.34 176 100.68 176 100 176 C106.54941832 184.97834167 113.92106151 193.14764787 123.0625 199.54296875 C125.26752008 201.20117941 127.15103477 203.07463619 129.125 205 C132.03231079 207.66232843 132.03231079 207.66232843 135.875 207.875 C139.41151434 205.7530914 142.78917821 203.49777576 146.12890625 201.078125 C149.93965703 198.31986729 153.82359749 195.67252711 157.70922852 193.02124023 C159.98228976 191.4570612 162.04390696 189.95609304 164 188 C164 193.94595672 160.52002388 196.40446117 156.49023438 200.51904297 C143.86131387 213.06934307 143.86131387 213.06934307 140 215 C140.15339844 215.51046875 140.30679688 216.0209375 140.46484375 216.546875 C141.16905403 219.7749338 141.34888204 222.95418001 141.5625 226.25 C141.64628906 227.51328125 141.73007812 228.7765625 141.81640625 230.078125 C141.87699219 231.04234375 141.93757812 232.0065625 142 233 C142.56509277 232.60619141 143.13018555 232.21238281 143.71240234 231.80664062 C146.26328547 230.0329346 148.81905034 228.26639624 151.375 226.5 C152.26445312 225.87996094 153.15390625 225.25992188 154.0703125 224.62109375 C154.92109375 224.03457031 155.771875 223.44804688 156.6484375 222.84375 C157.43395996 222.29912109 158.21948242 221.75449219 159.02880859 221.19335938 C161 220 161 220 163 220 C161.75672923 223.72981231 160.24296013 224.68587732 157.1875 227.125 C156.20265625 227.92035156 155.2178125 228.71570313 154.203125 229.53515625 C152.07383792 231.20450153 149.90395577 232.77976234 147.671875 234.30859375 C140.86072063 238.6852995 140.86072063 238.6852995 137.25 245.5625 C137.1675 246.696875 137.085 247.83125 137 249 C137.60328125 248.71125 138.2065625 248.4225 138.828125 248.125 C139.62734375 247.75375 140.4265625 247.3825 141.25 247 C142.03890625 246.62875 142.8278125 246.2575 143.640625 245.875 C146 245 146 245 150 245 C148.48328036 249.55015893 144.83108947 251.50057264 141 254 C148.81295199 263.98321643 159.2260871 271.22995226 169.32617188 278.72900391 C181.56653072 287.84979608 181.56653072 287.84979608 185 293 C184.67 294.98 184.34 296.96 184 299 C193.24 299 202.48 299 212 299 C211 304 211 304 208.98828125 305.4140625 C207.66376953 306.01347656 207.66376953 306.01347656 206.3125 306.625 C192.45901336 313.63260025 178.72899776 325.48217964 169.55078125 337.90234375 C165.78669466 342.99381603 161.53785835 347.59560807 157 352 C159.90917485 355.17739665 162.7480252 357.14251106 166.5625 359.125 C169.49123016 360.65890752 172.2459693 362.16397953 175 364 C175 364.66 175 365.32 175 366 C175.680625 366.20625 176.36125 366.4125 177.0625 366.625 C186.07572958 370.84395853 192.89392649 379.84550472 196.6875 388.875 C201.54220232 395.43540854 210.99894359 396.73303007 218.58300781 398.87133789 C219.31874023 399.07879639 220.05447266 399.28625488 220.8125 399.5 C221.90449707 399.80635376 221.90449707 399.80635376 223.01855469 400.11889648 C229.2678617 401.93623852 234.31324833 404.31324833 239 409 C239.46484375 412.3125 239.46484375 412.3125 239 416 C236.62890625 418.625 236.62890625 418.625 233.5625 421 C229.989578 423.77437622 228.25983255 425.12147183 226.96484375 429.5 C227.02647261 435.63549514 230.54389176 438.79523099 234.5625 443.125 C238.73206299 447.63004507 241.08737497 450.45745301 241.8125 456.625 C242.84914156 463.41253404 245.28158807 468.35181239 249.34765625 473.80859375 C250.95763247 475.22558574 250.95763247 475.22558574 253.1953125 474.92578125 C256.94918327 473.6866902 260.36544419 471.99475724 263.875 470.1875 C264.55691406 469.84396484 265.23882812 469.50042969 265.94140625 469.14648438 C269.316404 467.43327123 272.59013169 465.64902623 275.8203125 463.67578125 C276.86960937 463.12277344 277.91890625 462.56976562 279 462 C279.99 462.33 280.98 462.66 282 463 C274.21964622 469.71856432 265.88126938 474.88438884 257 480 C262.76982963 485.51951164 268.56950731 490.19890221 275.375 494.375 C277.85243735 495.90865169 280.25424107 497.49410076 282.625 499.1875 C283.25664062 499.63480469 283.88828125 500.08210938 284.5390625 500.54296875 C286.29011971 502.28934399 286.61800317 503.5892903 287 506 C284.03847247 508.45640718 281.40843158 509.66793355 277.75 510.8125 C269.8215033 513.59647147 264.10462144 517.61168141 260 525 C258.95023036 528.14930893 258.89868405 530.38814456 258.9375 533.6875 C258.95103516 535.17830078 258.95103516 535.17830078 258.96484375 536.69921875 C258.97644531 537.45847656 258.98804688 538.21773437 259 539 C272.83805073 534.06412732 272.83805073 534.06412732 285 526 C285.99 526 286.98 526 288 526 C287.74668787 529.24090514 286.89752925 530.09353981 284.4453125 532.33203125 C283.34740699 533.17059032 282.24001835 533.99683347 281.125 534.8125 C280.5472583 535.2461084 279.9695166 535.6797168 279.37426758 536.12646484 C274.0989828 540.03691674 268.61730952 543.60034574 263 547 C263.37697021 547.40202637 263.75394043 547.80405273 264.14233398 548.21826172 C292 577.94611052 292 577.94611052 292 582 C292.66 582 293.32 582 294 582 C295.5078125 584.1171875 295.5078125 584.1171875 297.125 586.875 C297.66382813 587.77992188 298.20265625 588.68484375 298.7578125 589.6171875 C300 592 300 592 300 594 C300.58007812 594.24105469 301.16015625 594.48210938 301.7578125 594.73046875 C304.42409659 596.24012437 305.91173255 597.96682905 307.875 600.3125 C310.17211355 602.98257663 312.25525843 605.20739748 315 607.4375 C318.54956675 610.4694216 321.20489364 613.85443815 324.06640625 617.52734375 C325.64563947 619.54684805 327.25569288 621.50412063 328.9375 623.4375 C331.4251656 626.29965289 333.80830167 629.23459427 336.1875 632.1875 C340.766364 637.80005403 345.60801945 643.13403717 350.54101562 648.43212891 C354.56783254 652.75947466 358.56835593 657.11127672 362.57421875 661.45800781 C363.90880077 662.90136741 365.25100386 664.33766979 366.59375 665.7734375 C373.16457223 672.86410326 379.12808746 680.3316576 385 688 C385.89912109 689.16402344 385.89912109 689.16402344 386.81640625 690.3515625 C388.23880748 692.21591085 389.62824378 694.09815509 391 696 C391.48855469 696.66773438 391.97710938 697.33546875 392.48046875 698.0234375 C396.97454283 704.42373838 403 713.01404093 403 721 C399.14948224 719.3963726 396.57424188 716.91078234 393.5625 714.0625 C389.33909277 710.11600546 385.05324125 706.27792548 380.625 702.5625 C380.09181152 702.11495361 379.55862305 701.66740723 379.00927734 701.20629883 C377.90983539 700.28398008 376.81022376 699.36186355 375.71044922 698.43994141 C362.28518804 687.13788739 349.12673385 675.54247594 336.1875 663.6875 C335.68911621 663.23109131 335.19073242 662.77468262 334.67724609 662.30444336 C332.0057304 659.85378091 329.3456825 657.3917685 326.69921875 654.9140625 C325.59163751 653.87968161 324.4835671 652.84582425 323.375 651.8125 C322.83681641 651.31081299 322.29863281 650.80912598 321.74414062 650.29223633 C317.5887903 646.45686818 313.24831343 642.92798183 308.73046875 639.5234375 C308.15941406 639.02070312 307.58835937 638.51796875 307 638 C307 637.34 307 636.68 307 636 C306.44957031 635.77570312 305.89914062 635.55140625 305.33203125 635.3203125 C302.27416852 633.58906024 300.15178174 631.37762275 297.6875 628.875 C296.78386719 627.96492187 295.88023437 627.05484375 294.94921875 626.1171875 C292.76601182 623.85191071 290.69011438 621.51277706 288.6328125 619.1328125 C284.97724024 614.9234867 281.13123803 610.93896353 277.1875 607 C276.48463867 606.29794434 275.78177734 605.59588867 275.05761719 604.87255859 C270.70937818 600.57529894 266.28443109 596.55337148 261.4140625 592.84765625 C258.57282748 590.67305404 255.85611913 588.37371839 253.125 586.0625 C246.53836687 580.55106277 239.73143831 575.34031457 232.71484375 570.38671875 C228.52757942 567.39351053 225.29013147 564.1936927 221.95703125 560.28125 C214.21748533 551.25950386 207.84568749 544.97519593 196 542 C194.39898437 541.52046875 194.39898437 541.52046875 192.765625 541.03125 C184.80322014 539.46119834 180.74617252 541.34250744 174.08618164 545.63916016 C170.68270655 547.9751608 167.3477764 550.39771438 164.06787109 552.90429688 C162 554 162 554 159.73291016 553.67382812 C159.1610498 553.45146484 158.58918945 553.22910156 158 553 C160.45698961 551.18565366 162.91551259 549.37345469 165.375 547.5625 C166.07367188 547.04623047 166.77234375 546.52996094 167.4921875 545.99804688 C168.1625 545.50498047 168.8328125 545.01191406 169.5234375 544.50390625 C170.450354 543.82050171 170.450354 543.82050171 171.39599609 543.12329102 C173 542 173 542 175 541 C171.97008427 539.48504214 168.70414512 539.43102897 165.375 539.0625 C156.64928083 538.05096257 156.64928083 538.05096257 152.4375 536.875 C143.60479246 534.62667445 138.03746886 537.35180952 129.9375 541 C127.82608002 541.94751412 125.71029819 542.88538063 123.58984375 543.8125 C122.66034912 544.23144531 121.73085449 544.65039062 120.77319336 545.08203125 C117.7024023 546.09850932 115.21358969 546.16575575 112 546 C113.16658134 542.50025599 113.71767534 542.30147323 116.81640625 540.58984375 C117.96206055 539.94112305 117.96206055 539.94112305 119.13085938 539.27929688 C119.93330078 538.83650391 120.73574219 538.39371094 121.5625 537.9375 C123.15092219 537.05758267 124.73578705 536.17120195 126.31640625 535.27734375 C127.02224854 534.88796631 127.72809082 534.49858887 128.45532227 534.09741211 C129.21993774 533.55419312 129.21993774 533.55419312 130 533 C130 532.34 130 531.68 130 531 C127.03 529.68 124.06 528.36 121 527 C120.54623817 523.97492115 120.48840238 521.80615383 122.16015625 519.171875 C123.21811103 517.84063778 124.27675125 516.50994512 125.3359375 515.1796875 C131.63440707 506.92957947 132.83747967 499.25355507 133 489 C131.08259417 489.78987473 129.16610359 490.58197148 127.25 491.375 C126.18265625 491.81585937 125.1153125 492.25671875 124.015625 492.7109375 C121.10676588 493.89849908 121.10676588 493.89849908 118.859375 495.1640625 C117 496 117 496 113 496 C114.15870681 492.52387957 114.78648763 492.21754011 117.796875 490.36328125 C118.58457275 489.8724707 119.37227051 489.38166016 120.18383789 488.87597656 C121.03067139 488.3600293 121.87750488 487.84408203 122.75 487.3125 C123.61165771 486.7772168 124.47331543 486.24193359 125.36108398 485.69042969 C129.15730211 483.33676737 132.9701241 481.01198448 136.80078125 478.71484375 C146.9914425 472.64762607 146.9914425 472.64762607 156 465 C156.33212809 461.99837179 156.33212809 461.99837179 154.50390625 460.31640625 C153.21236468 459.14960109 151.92069853 457.98293383 150.62890625 456.81640625 C148.8397874 454.82134567 148.54241027 453.56971436 148 451 C145.43623236 452.26832688 142.87397788 453.53956365 140.3125 454.8125 C139.59126953 455.16892578 138.87003906 455.52535156 138.12695312 455.89257812 C135.10291973 457.39769064 132.14710669 458.91161061 129.25 460.65234375 C127.090592 461.94573916 125.03889192 462.86457356 122.6875 463.75 C117.85903992 465.62569921 113.11599917 467.66569903 108.375 469.75 C107.65143311 470.06807617 106.92786621 470.38615234 106.18237305 470.71386719 C104.45437149 471.47467738 102.72710605 472.23715912 101 473 C101 472.01 101 471.02 101 470 C103.046875 468.3515625 103.046875 468.3515625 105.75 466.625 C109.65675284 464.12330739 112.24556952 461.73500773 115 458 C115.7321875 457.030625 116.464375 456.06125 117.21875 455.0625 C117.9715625 454.051875 118.724375 453.04125 119.5 452 C127.81134856 440.84229919 127.81134856 440.84229919 132 438 C131.16855469 438.433125 130.33710938 438.86625 129.48046875 439.3125 C128.39378906 439.869375 127.30710937 440.42625 126.1875 441 C124.56908203 441.8353125 124.56908203 441.8353125 122.91796875 442.6875 C120 444 120 444 117 444 C118.19545163 440.41364511 118.82183647 440.28146266 122.0625 438.625 C126.51339498 436.27829416 130.76408213 433.71237248 135 431 C133.1746875 431.4640625 133.1746875 431.4640625 131.3125 431.9375 C128.2217028 432.71157177 125.13265666 433.41262688 122 434 C123.19353117 431.4140158 124.47020936 429.368576 126.1875 427.0625 C128.31516684 424.19708915 128.31516684 424.19708915 127.61328125 421.30859375 C127.41089844 420.54675781 127.20851563 419.78492188 127 419 C118.19846527 418.6388428 110.62590956 419.20439715 102.05859375 421.34375 C99.25440408 421.94541522 96.85351815 422.12753154 94 422 C93.67 421.34 93.34 420.68 93 420 C86.39070482 419.37648159 82.22792863 420.94421406 76.3203125 423.90625 C74 425 74 425 72 425 C73.52343235 420.7864561 76.61892108 418.81606566 80.125 416.3125 C85.8547175 412.07759441 90.42554497 407.47398815 95 402 C96.2684375 400.7625 96.2684375 400.7625 97.5625 399.5 C100.33950175 396.65179308 102.7013405 393.614979 105.109375 390.453125 C107.04283289 387.94442344 109.04858374 385.50687165 111.0625 383.0625 C120.10641422 371.77513419 124.30908227 361.34296098 126 347 C124.783125 347.226875 123.56625 347.45375 122.3125 347.6875 C116.9742228 347.72986728 114.05784417 345.20315644 110.1875 341.875 C109.63682861 341.40151123 109.08615723 340.92802246 108.51879883 340.44018555 C105.01935183 337.27483247 102.46383107 334.02087685 100 330 C98.6645436 330.87175626 97.33178338 331.74764271 96 332.625 C95.2575 333.11226562 94.515 333.59953125 93.75 334.1015625 C91.52317059 335.63883394 89.38459138 337.22651845 87.23828125 338.87109375 C83.0555515 342.02750101 78.68370609 344.75392084 74.1875 347.4375 C67.78965625 351.26149435 67.78965625 351.26149435 61.52734375 355.30078125 C60.09068359 356.26564453 60.09068359 356.26564453 58.625 357.25 C57.81289062 357.81203125 57.00078125 358.3740625 56.1640625 358.953125 C54 360 54 360 51.7109375 359.671875 C51.14632812 359.45015625 50.58171875 359.2284375 50 359 C52.08013585 357.37076065 54.16387974 355.7465453 56.25 354.125 C56.83652344 353.66480469 57.42304688 353.20460938 58.02734375 352.73046875 C60.42744068 350.86971944 62.61323321 349.18569929 65.359375 347.8671875 C67.36815437 347.04712114 67.36815437 347.04712114 68 344 C69.59375 342.46484375 69.59375 342.46484375 71.5 340.9375 C74.18106401 338.82278233 74.18106401 338.82278233 76 336 C76.66 336 77.32 336 78 336 C78.30550781 335.18208984 78.30550781 335.18208984 78.6171875 334.34765625 C80.88989387 330.48919149 84.46087714 327.85981096 87.83203125 324.97851562 C89.27379576 323.7095534 90.64292341 322.35915163 92 321 C92 317.61976483 91.12544378 315.16531063 90 312 C89.17757812 312.64066406 88.35515625 313.28132813 87.5078125 313.94140625 C68.10550583 329 68.10550583 329 65 329 C66.53369088 324.88227236 69.16320641 323.17705745 72.6875 320.6875 C80.10949073 315.61985967 80.10949073 315.61985967 86 309 C85.02034736 298.22382097 73.63224642 284.20267263 67 276 C66.525625 275.113125 66.05125 274.22625 65.5625 273.3125 C63.60844948 270.42050523 62.29511863 270.04283662 59 269 C56.23439174 268.70189478 56.23439174 268.70189478 53.32421875 268.7265625 C52.24849609 268.7059375 51.17277344 268.6853125 50.06445312 268.6640625 C47.82494543 268.63815726 45.58533616 268.61984669 43.34570312 268.609375 C36.44608595 268.46108472 31.91417006 267.61621604 26 264 C26 260.7 26 257.4 26 254 C19.73 254 13.46 254 7 254 C8.31646387 250.0506084 9.83098332 249.71635559 13.4375 247.75 C19.23266483 244.48550478 24.60443089 240.87752314 30 237 C31.66620933 235.85350173 33.33287886 234.707672 35 233.5625 C44.45231572 227.25692191 44.45231572 227.25692191 52 219 C51.40445313 218.78988281 50.80890625 218.57976562 50.1953125 218.36328125 C47.17431329 216.48725149 46.37957831 214.3817749 44.875 211.1875 C44.37742188 210.14980469 43.87984375 209.11210938 43.3671875 208.04296875 C42 205 42 205 41.0625 202.328125 C39.81708759 199.59920664 38.4689516 198.40670343 36.125 196.5625 C32.66288863 193.68782269 30.38979897 190.84074834 28 187 C25.07497446 183.57471043 22.80115339 182.32527508 18.45703125 181.21875 C16.84538086 180.79142578 16.84538086 180.79142578 15.20117188 180.35546875 C14.08291016 180.07316406 12.96464844 179.79085937 11.8125 179.5 C-7.44780979 174.55219021 -7.44780979 174.55219021 -12 170 C-12 169.01 -12 168.02 -12 167 C-11.175 166.649375 -10.35 166.29875 -9.5 165.9375 C-1.45470549 161.8204244 3.17405645 155.55886436 7.91796875 148.0546875 C9.98734786 145.0185628 12.22010981 142.47074796 14.75 139.8125 C19.65962102 134.51282273 23.10513685 129.26072822 23.375 121.875 C22.70753215 114.97783222 20.43077811 109.66782234 17.28125 103.59765625 C16.06913372 101.1401644 15.08058857 98.69108483 14.125 96.125 C9.95385185 84.95408553 9.95385185 84.95408553 1.5625 77.3125 C0.386875 77.209375 -0.78875 77.10625 -2 77 C-3.4795242 76.79422111 -4.9586951 76.58588591 -6.4375 76.375 C-8.2009375 76.189375 -8.2009375 76.189375 -10 76 C-10.33 74.68 -10.66 73.36 -11 72 C-10.05125 71.319375 -9.1025 70.63875 -8.125 69.9375 C-4.5622062 67.01332019 -3.8726412 64.4504701 -3 60 C-2.34 60 -1.68 60 -1 60 C-0.505 30.3 -0.505 30.3 0 0 Z " fill="#590000" transform="translate(197,306)"/>
<path d="M0 0 C1.98342263 3.38161505 2.4597889 6.36975766 2.89453125 10.24609375 C3.04277344 11.53700928 3.19101562 12.8279248 3.34375 14.15795898 C3.41980469 14.85283417 3.49585938 15.54770935 3.57421875 16.26364136 C3.81660476 18.47494803 4.06937359 20.6848722 4.32421875 22.89477539 C5.2372127 30.87117071 6.09403216 38.85277635 6.91667175 46.838974 C7.33414362 50.8780676 7.76148909 54.91609629 8.1890564 58.95413208 C8.4946661 61.88632354 8.78424199 64.81981815 9.07348633 67.75366211 C10.53892783 82.00588584 12.24969291 94.40650405 24 104 C27.8894327 106.07311899 31.80749182 107.65215473 36 109 C33.26245823 112.7762928 29.1020289 113.22469744 24.8125 114.1875 C23.68811523 114.45336914 23.68811523 114.45336914 22.54101562 114.72460938 C20.69625181 115.15936263 18.84839934 115.58097276 17 116 C17 116.66 17 117.32 17 118 C17 120.33333333 17 122.66666667 17 125 C18.65 125.66 20.3 126.32 22 127 C22 127.99 22 128.98 22 130 C22.70125 130.391875 23.4025 130.78375 24.125 131.1875 C27.54950368 133.34642623 29.27260632 135.78361119 31.5703125 139.0625 C32.94284658 141.03438417 32.94284658 141.03438417 34.6796875 142.625 C36 144 36 144 36 146 C36.66 146 37.32 146 38 146 C38 146.66 38 147.32 38 148 C38.59167969 148.26167969 39.18335938 148.52335938 39.79296875 148.79296875 C46.05911017 152.21993813 49.38388403 158.55213562 52.4375 164.75 C54.94091757 169.56768804 56.66003877 172.4482463 61.80078125 174.3671875 C62.52652344 174.57601562 63.25226563 174.78484375 64 175 C65.35158203 175.43699219 65.35158203 175.43699219 66.73046875 175.8828125 C69.14304296 176.63823066 71.55990598 177.33997457 74 178 C73.42089125 181.72643889 71.87129052 183.540119 69.3125 186.25 C66.06711153 189.76825655 63.16430848 193.35337082 60.421875 197.2734375 C58.79863977 199.24450885 57.13628101 200.60714478 55 202 C54.34 202 53.68 202 53 202 C50.5012092 206.16465133 49.39486104 210.45666234 50.5390625 215.265625 C51.07933241 217.0446956 51.62112124 218.82330533 52.1640625 220.6015625 C53.8843276 227.59516359 54.33064229 234.84180986 55 242 C65.24854541 243.26237732 75.79985439 243.94288488 86 242 C86.33 242.66 86.66 243.32 87 244 C83.2521079 245.00801676 79.50137033 246.00501289 75.75 247 C74.68652344 247.28617188 73.62304688 247.57234375 72.52734375 247.8671875 C71.50253906 248.13789063 70.47773437 248.40859375 69.421875 248.6875 C68.00793457 249.06455078 68.00793457 249.06455078 66.56542969 249.44921875 C64 250 64 250 60 250 C65.33610417 259.03033013 73.64307756 261.90122296 83 266 C83.76763672 266.3503833 84.53527344 266.7007666 85.32617188 267.06176758 C88.31474996 268.11044413 90.74023245 268.30091302 93.90234375 268.37890625 C95.03438232 268.41250244 96.1664209 268.44609863 97.33276367 268.48071289 C99.11710815 268.52119751 99.11710815 268.52119751 100.9375 268.5625 C103.36984472 268.63362498 105.80213821 268.70652515 108.234375 268.78125 C109.98331055 268.83345703 109.98331055 268.83345703 111.76757812 268.88671875 C117.52496866 269.08848833 123.26079091 269.50139958 129 270 C128 273 128 273 125.9609375 274.0625 C124.68089844 274.5265625 124.68089844 274.5265625 123.375 275 C122.4675 275.33773438 121.56 275.67546875 120.625 276.0234375 C119.75875 276.34570312 118.8925 276.66796875 118 277 C116.205625 277.804375 116.205625 277.804375 114.375 278.625 C111 280 111 280 107.4140625 280.859375 C102.46323073 282.06320044 97.7607086 283.82602256 93 285.625 C92.12988281 285.94984375 91.25976562 286.2746875 90.36328125 286.609375 C88.24071787 287.40242066 86.1197043 288.19935082 84 289 C84.99 290.65 85.98 292.3 87 294 C90.96 293.67 94.92 293.34 99 293 C99 293.66 99 294.32 99 295 C97.741875 295.24234375 96.48375 295.4846875 95.1875 295.734375 C91.60928577 296.42641133 88.04254714 297.16177942 84.4765625 297.9140625 C81.13716171 298.60943127 77.85204153 299.16384392 74.4609375 299.5234375 C69.50783835 300.17441293 64.83691862 300.80106092 61.46142578 304.84179688 C59.02337294 308.61113841 57.13571779 312.52555508 55.30859375 316.6171875 C53.09851014 321.31915044 50.13003733 323.95791166 46 327 C45.06414062 327.74765625 44.12828125 328.4953125 43.1640625 329.265625 C41.45659965 330.60007289 39.74825069 331.93338768 38.0390625 333.265625 C35.91564739 334.84240924 35.91564739 334.84240924 35 337 C35.03384811 346.23047123 36.81013222 355.2678806 38.73657227 364.25585938 C39.18492405 366.36289431 39.60964688 368.47379715 40.03320312 370.5859375 C42.66841962 383.29391684 46.57024072 399.57024072 56 409 C58.35194387 409.51902923 60.69620463 409.9939606 63.0625 410.4375 C67.0935038 411.20389883 71.07792055 411.9645799 75 413.1875 C81.05938494 414.82407495 87.76746747 414.14607498 94 414 C94 414.66 94 415.32 94 416 C86.84807616 417.89425303 80.31511339 418.24602079 72.9375 418.125 C71.88111328 418.11597656 70.82472656 418.10695313 69.73632812 418.09765625 C67.15730747 418.0743167 64.5787801 418.04157775 62 418 C62.91757182 419.2722905 63.84214261 420.53953476 64.76953125 421.8046875 C65.54067261 422.86405518 65.54067261 422.86405518 66.32739258 423.94482422 C76.09295335 435.94402004 96.73087651 438.37406429 111 442 C111 442.66 111 443.32 111 444 C97.47 444 83.94 444 70 444 C70 444.66 70 445.32 70 446 C67.69 446 65.38 446 63 446 C63 446.66 63 447.32 63 448 C57.72 448.33 52.44 448.66 47 449 C47 450.65 47 452.3 47 454 C45.02 454.33 43.04 454.66 41 455 C41.73605469 455.36351562 42.47210937 455.72703125 43.23046875 456.1015625 C44.69419922 456.85566406 44.69419922 456.85566406 46.1875 457.625 C47.15042969 458.11226562 48.11335937 458.59953125 49.10546875 459.1015625 C51.92378314 460.95001162 53.54601548 462.85517457 55.6081543 465.47949219 C58.20629638 468.31780633 61.44191098 470.02546855 64.8125 471.8125 C65.55008545 472.2048584 66.2876709 472.5972168 67.04760742 473.00146484 C75.2311701 477.04756442 85.08084508 478.83076453 94 476 C93.75 477.875 93.75 477.875 93 480 C88.58328072 483.05606737 83.18074894 482.39381749 78.01953125 482.55859375 C74.24501338 482.83055987 71.03399059 483.91331624 67.48754883 485.18237305 C62.73717779 486.74376206 57.82693935 487.66642465 52.9375 488.6875 C51.88111328 488.91244141 50.82472656 489.13738281 49.73632812 489.36914062 C47.15849004 489.91736863 44.57975631 490.46088436 42 491 C41.67 493.97 41.34 496.94 41 500 C46.38027025 501.19088986 51.45291384 502.2919519 57 502 C56.67 502.99 56.34 503.98 56 505 C50.97703996 506.13016601 47.02125926 505.77916092 42 505 C41.49755904 511.78295292 42.69261057 517.01569225 46 523 C52.22676681 529.81979222 61.03132172 532.33565346 70 533 C70 533.66 70 534.32 70 535 C64.13783415 537.34486634 58.90633937 537.52970948 52.78515625 536.4140625 C45.82011457 535.65214876 38.29428685 536.77647802 32 540 C28.89157178 543.62649959 28.08092211 547.41108532 27 552 C26.34082194 554.14586723 25.64348414 556.27735146 24.94628906 558.41113281 C24.27768702 560.4769537 23.64019705 562.54940031 23.015625 564.62890625 C22.37307998 566.76166145 21.70437979 568.88686064 21 571 C25.95 572.485 25.95 572.485 31 574 C31 575.32 31 576.64 31 578 C26.38 578.33 21.76 578.66 17 579 C16.67 580.32 16.34 581.64 16 583 C13.88187109 590.08374243 10.38305518 596.43500602 7.02001953 602.98583984 C3.24353983 610.44298621 -0.14039891 618.1075206 -3.6015625 625.71484375 C-8.85885669 637.25747644 -14.22362248 648.70783343 -20 660 C-20.66 661.32 -21.32 662.64 -22 664 C-15.73 664.33 -9.46 664.66 -3 665 C-3 665.66 -3 666.32 -3 667 C-10.43792414 668.61131045 -17.40022586 669.21245241 -25 669 C-25.16870605 669.57903076 -25.33741211 670.15806152 -25.51123047 670.75463867 C-33.31559627 697.188865 -43.22405214 722.12194901 -57 746 C-57.66 746 -58.32 746 -59 746 C-59.09373799 741.31828773 -58.80409966 736.97215192 -58.01171875 732.359375 C-57.79966797 731.12316406 -57.58761719 729.88695312 -57.36914062 728.61328125 C-57.14419922 727.33839844 -56.91925781 726.06351563 -56.6875 724.75 C-56.47416016 723.49058594 -56.26082031 722.23117187 -56.04101562 720.93359375 C-55.09121071 715.4729243 -54.10813553 710.15765728 -52.4453125 704.8671875 C-50.25853332 697.19624993 -49.99381109 689.2233515 -49.40637207 681.30435181 C-47.857398 660.57310925 -45.55161107 639.97522795 -42.93041992 619.35498047 C-42.80247543 618.34734146 -42.67453094 617.33970245 -42.54270935 616.30152893 C-42.30175384 614.41266101 -42.05852435 612.52408128 -41.81263733 610.635849 C-41.70527756 609.80187088 -41.59791779 608.96789276 -41.48730469 608.10864258 C-41.39278015 607.3835701 -41.29825562 606.65849762 -41.2008667 605.91145325 C-40.94774481 603.82306783 -40.94774481 603.82306783 -41 601 C-42.91425781 600.69255859 -42.91425781 600.69255859 -44.8671875 600.37890625 C-46.53648621 600.10694185 -48.20575553 599.83479709 -49.875 599.5625 C-50.71675781 599.42779297 -51.55851563 599.29308594 -52.42578125 599.15429688 C-53.23144531 599.02216797 -54.03710938 598.89003906 -54.8671875 598.75390625 C-55.98262939 598.57323608 -55.98262939 598.57323608 -57.12060547 598.38891602 C-59 598 -59 598 -61 597 C-61 596.01 -61 595.02 -61 594 C-55.84689114 593.31291882 -50.87367424 592.94008995 -45.671875 592.96875 C-44.60549805 592.97326172 -43.53912109 592.97777344 -42.44042969 592.98242188 C-41.63508789 592.98822266 -40.82974609 592.99402344 -40 593 C-40.0695803 587.39859345 -40.15787372 581.79788416 -40.26245117 576.19702148 C-40.29541184 574.29736157 -40.32353041 572.3976105 -40.34643555 570.49780273 C-40.03891318 554.37543651 -40.03891318 554.37543651 -44 539 C-47.47338631 536.40798762 -50.85404645 535.18455816 -55 534 C-56.33611328 533.54753906 -56.33611328 533.54753906 -57.69921875 533.0859375 C-62.43335869 531.53447357 -67.05191771 530.53783503 -72 530 C-72 529.01 -72 528.02 -72 527 C-69.69 526.34 -67.38 525.68 -65 525 C-65.33 524.01 -65.66 523.02 -66 522 C-63.4758959 520.73794795 -61.70010321 520.9644424 -58.875 520.9375 C-49.85119114 520.29216094 -39.24230393 515.65483263 -33 509 C-34.35897511 505.76128092 -35.61727527 504.28289214 -38.625 502.4921875 C-39.33140625 502.06292969 -40.0378125 501.63367188 -40.765625 501.19140625 C-41.50296875 500.75699219 -42.2403125 500.32257813 -43 499.875 C-44.45970861 498.99968522 -45.91810323 498.12217442 -47.375 497.2421875 C-48.02210938 496.8591748 -48.66921875 496.47616211 -49.3359375 496.08154297 C-51 495 -51 495 -53 493 C-52.97265625 491.06640625 -52.97265625 491.06640625 -52 489 C-49.55859375 487.40234375 -49.55859375 487.40234375 -46.4375 485.9375 C-45.35597656 485.42445313 -44.27445313 484.91140625 -43.16015625 484.3828125 C-40.58351876 483.25533454 -38.02734682 482.24057715 -35.375 481.3125 C-31.7747174 480.28437066 -31.7747174 480.28437066 -30 477 C-22.39707495 455.97316039 -23.57655809 432.0521751 -23 410 C-24.03382813 410.02835938 -25.06765625 410.05671875 -26.1328125 410.0859375 C-29.67583784 410.0072036 -32.48192401 409.57430935 -35.875 408.625 C-37.29425781 408.24214844 -37.29425781 408.24214844 -38.7421875 407.8515625 C-41 407 -41 407 -42 405 C-38.24600202 403.7960663 -34.66782588 403.90122383 -30.75 403.9375 C-28.85507812 403.95103516 -28.85507812 403.95103516 -26.921875 403.96484375 C-25.95765625 403.97644531 -24.9934375 403.98804688 -24 404 C-24.0721875 403.36835937 -24.144375 402.73671875 -24.21875 402.0859375 C-25.01892369 394.37315222 -25.09488378 386.748842 -25 379 C-25 378.34 -25 377.68 -25 377 C-40.25651651 371.81247047 -55.49461075 366.67134949 -71.01953125 362.33374023 C-77.46674005 360.51814028 -83.73411997 358.36622099 -90 356 C-90 355.34 -90 354.68 -90 354 C-88.50218994 353.91697632 -88.50218994 353.91697632 -86.97412109 353.83227539 C-83.25029664 353.62498671 -79.52672946 353.41335174 -75.80322266 353.20043945 C-74.19521613 353.10909382 -72.58714324 353.01890858 -70.97900391 352.92993164 C-68.66029504 352.80143353 -66.3418612 352.66868942 -64.0234375 352.53515625 C-63.31069672 352.49656998 -62.59795593 352.4579837 -61.86361694 352.41822815 C-57.84943479 352.18238819 -53.95280233 351.73810878 -50 351 C-50.99 350.34 -51.98 349.68 -53 349 C-53 348.34 -53 347.68 -53 347 C-46.68027076 345.80343362 -40.39205856 344.72362927 -34 344 C-34.33 342.35 -34.66 340.7 -35 339 C-30.66579301 336.96834048 -26.71403788 336.47939368 -22 336 C-22.01160156 335.26394531 -22.02320313 334.52789063 -22.03515625 333.76953125 C-22.04417969 332.79371094 -22.05320312 331.81789063 -22.0625 330.8125 C-22.07410156 329.84957031 -22.08570313 328.88664062 -22.09765625 327.89453125 C-22.00486622 325.14423487 -21.62111685 322.67520409 -21 320 C-21.70640625 319.76925781 -22.4128125 319.53851562 -23.140625 319.30078125 C-26.58929587 317.73191868 -28.93819332 315.72192575 -31.75 313.1875 C-32.71421875 312.33542969 -33.6784375 311.48335937 -34.671875 310.60546875 C-37.07718564 307.91361942 -37.7203881 306.53963241 -38 303 C-36.43902526 301.8936781 -34.87614673 300.79004215 -33.3125 299.6875 C-32.44238281 299.07261719 -31.57226562 298.45773437 -30.67578125 297.82421875 C-28 296 -28 296 -25.28125 294.5 C-22.83100281 292.88887856 -22.15825238 292.02038823 -21.1875 289.3125 C-20.5996875 287.6728125 -20.5996875 287.6728125 -20 286 C-20.77601563 286.01160156 -21.55203125 286.02320313 -22.3515625 286.03515625 C-44.55868545 286.22065728 -44.55868545 286.22065728 -49 284 C-49 283.01 -49 282.02 -49 281 C-45.56941274 280.23918738 -42.31459302 279.84007051 -38.8046875 279.71875 C-37.84175781 279.68136719 -36.87882813 279.64398438 -35.88671875 279.60546875 C-33.8711033 279.53488299 -31.85547819 279.4645726 -29.83984375 279.39453125 C-28.87949219 279.35714844 -27.91914062 279.31976563 -26.9296875 279.28125 C-26.05554199 279.25095703 -25.18139648 279.22066406 -24.28076172 279.18945312 C-21.83662473 279.07699147 -21.83662473 279.07699147 -19 278 C-18.67 277.01 -18.34 276.02 -18 275 C-19.03125 275.185625 -20.0625 275.37125 -21.125 275.5625 C-24.76148442 275.97307082 -27.45437009 275.778309 -31 275 C-31 274.34 -31 273.68 -31 273 C-26.32266446 271.79294567 -21.78748817 271.92344359 -17 272 C-16.49858364 263.28287012 -18.02277837 255.01173262 -19.6875 246.5 C-19.82349609 245.79467133 -19.95949219 245.08934265 -20.09960938 244.36264038 C-21.72166655 235.97594319 -23.37151585 227.58746141 -25.5 219.3125 C-25.66459717 218.62027344 -25.82919434 217.92804688 -25.9987793 217.21484375 C-27.39442848 212.19792968 -29.78195465 209.92098344 -34 207 C-43.04631638 202.01275054 -53.46751409 200.52041655 -63.50512695 198.69921875 C-64.55788818 198.50585938 -65.61064941 198.3125 -66.6953125 198.11328125 C-68.1186792 197.86251831 -68.1186792 197.86251831 -69.57080078 197.60668945 C-72 197 -72 197 -75 195 C-75 194.01 -75 193.02 -75 192 C-61.6228383 186.53281218 -48.01952777 182.43418379 -33.85546875 179.578125 C-31.54862494 179.11107591 -29.27630315 178.59525603 -27 178 C-27 177.34 -27 176.68 -27 176 C-28.03898438 176.01160156 -29.07796875 176.02320313 -30.1484375 176.03515625 C-37.83026349 176.0941338 -45.36932205 176.02720665 -53 175 C-53 174.34 -53 173.68 -53 173 C-30.11069242 168.6820537 -30.11069242 168.6820537 -23 171 C-24.52206009 168.37098712 -25.84365964 166.15634036 -28 164 C-28.25 161 -28.25 161 -28 158 C-25.8614515 155.8614515 -24.86724686 155.57344937 -22 155 C-22.825 154.54625 -23.65 154.0925 -24.5 153.625 C-25.325 153.08875 -26.15 152.5525 -27 152 C-27 151.34 -27 150.68 -27 150 C-35.27657818 147.76308698 -43.50692562 146.1643731 -52 145 C-51 142 -51 142 -49.17749023 140.94091797 C-48.39575439 140.62783691 -47.61401855 140.31475586 -46.80859375 139.9921875 C-45.94556641 139.64542969 -45.08253906 139.29867187 -44.19335938 138.94140625 C-43.28392578 138.58949219 -42.37449219 138.23757813 -41.4375 137.875 C-40.11395508 137.33552734 -40.11395508 137.33552734 -38.76367188 136.78515625 C-33.19994928 134.5892746 -29.21608554 133.77701069 -23 133 C-21.68 126.4 -20.36 119.8 -19 113 C-24.56203224 112.13831166 -24.56203224 112.13831166 -30.12695312 111.2956543 C-35.408182 110.44637237 -40.04844794 109.02718358 -45 107 C-45 106.34 -45 105.68 -45 105 C-36.09 104.67 -27.18 104.34 -18 104 C-8.45217782 69.52833431 -2.53804565 35.72401774 0 0 Z " fill="#560000" transform="translate(883,202)"/>
<path d="M0 0 C0.66 0.33 1.32 0.66 2 1 C2.625 4.0625 2.625 4.0625 3 7 C-2.29304048 8.79425101 -7.60249136 10.52179175 -12.9375 12.1875 C-14.03964844 12.53167969 -15.14179688 12.87585938 -16.27734375 13.23046875 C-19 14 -19 14 -21 14 C-20.73193359 12.12939453 -20.73193359 12.12939453 -20 10 C-18.37353516 8.84326172 -18.37353516 8.84326172 -16.2890625 7.9296875 C-15.53882813 7.59066406 -14.78859375 7.25164062 -14.015625 6.90234375 C-13.22671875 6.56332031 -12.4378125 6.22429687 -11.625 5.875 C-10.07466709 5.18681592 -8.52515425 4.49678073 -6.9765625 3.8046875 C-6.28643066 3.50546387 -5.59629883 3.20624023 -4.88525391 2.89794922 C-2.74705017 1.93464528 -2.74705017 1.93464528 0 0 Z " fill="#7C0000" transform="translate(510,344)"/>
<path d="M0 0 C-1.54304814 4.30851104 -4.83409506 6.49661902 -8.375 9.125 C-9.24125 9.78822266 -9.24125 9.78822266 -10.125 10.46484375 C-12.96653522 12.61221397 -15.73067778 14.56665183 -19 16 C-20.35439668 13.29120665 -20.06501451 10.99066732 -20 8 C-4.57142857 0 -4.57142857 0 0 0 Z " fill="#490000" transform="translate(689,729)"/>
<path d="M0 0 C0.66 1.32 1.32 2.64 2 4 C-5.45582208 6.23674662 -12.21239916 7.15575202 -20 7 C-20 6.34 -20 5.68 -20 5 C-17.79567015 4.15450362 -15.58751467 3.32357186 -13.375 2.5 C-11.53035156 1.80390625 -11.53035156 1.80390625 -9.6484375 1.09375 C-6.18957134 0.05683081 -3.57814964 -0.22019382 0 0 Z " fill="#7B0000" transform="translate(605,724)"/>
<path d="M0 0 C2.64 0.66 5.28 1.32 8 2 C8 6 8 6 6.75 7.6875 C5 9 5 9 1 10 C0.67 6.7 0.34 3.4 0 0 Z " fill="#7E0000" transform="translate(983,474)"/>
<path d="M0 0 C2.35108558 3.70821628 2.43155058 7.48605238 2.625 11.75 C2.66367187 12.44738281 2.70234375 13.14476562 2.7421875 13.86328125 C2.83598624 15.57510818 2.91906174 17.28751682 3 19 C1.68 19.33 0.36 19.66 -1 20 C-1.10152799 13.2314676 -1.03026944 6.69675136 0 0 Z " fill="#7E0000" transform="translate(883,202)"/>
<path d="M0 0 C0 2.64 0 5.28 0 8 C-2.31 7.34 -4.62 6.68 -7 6 C-7.33 4.68 -7.66 3.36 -8 2 C-4.91190305 0.23537317 -3.76687864 0 0 0 Z " fill="#760000" transform="translate(816,392)"/>
<path d="M0 0 C0 0.66 0 1.32 0 2 C-1.74784829 2.36463732 -3.49840502 2.7163078 -5.25 3.0625 C-6.71179688 3.35833984 -6.71179688 3.35833984 -8.203125 3.66015625 C-10.868119 3.98397535 -12.48871723 3.85503199 -15 3 C-10.38649226 -0.07567183 -5.44961357 -0.16513981 0 0 Z " fill="#420000" transform="translate(982,495)"/>
<path d="M0 0 C-1 3 -1 3 -2.84765625 3.94921875 C-3.57855469 4.19285156 -4.30945313 4.43648437 -5.0625 4.6875 C-6.16271484 5.06455078 -6.16271484 5.06455078 -7.28515625 5.44921875 C-7.85105469 5.63097656 -8.41695312 5.81273437 -9 6 C-7.93344655 3.09121786 -7.32878952 2.16439476 -4.5 0.75 C-2 0 -2 0 0 0 Z " fill="#370000" transform="translate(692,569)"/>
<path d="M0 0 C-0.33 0.66 -0.66 1.32 -1 2 C-3.64860427 2.59355614 -6.29197322 2.74209269 -9 3 C-8 1 -8 1 -5.0625 -0.1875 C-2 -1 -2 -1 0 0 Z " fill="#750000" transform="translate(478,400)"/>
<path d="M0 0 C-1.33332095 3.99996286 -3.4957827 4.83782337 -7 7 C-4.60526316 0 -4.60526316 0 0 0 Z " fill="#340000" transform="translate(360,526)"/>
</svg>
